<svg width="37" height="37" viewBox="0 0 37 37" fill="none" xmlns="http://www.w3.org/2000/svg">
<g clip-path="url(#clip0_12_381)">
<path d="M23.125 27.7501C23.125 27.1584 23.3508 26.5664 23.8025 26.1154L31.4211 18.5001L23.8043 10.8833C22.901 9.97998 22.901 8.5166 23.8043 7.61328C24.7076 6.70996 26.171 6.70996 27.0743 7.61328L36.3243 16.8633C37.2276 17.7666 37.2276 19.23 36.3243 20.1333L27.0743 29.3833C26.171 30.2866 24.7076 30.2866 23.8043 29.3833C23.349 28.9353 23.125 28.3427 23.125 27.7501Z" fill="#3400B0"/>
<path opacity="0.4" d="M29.1086 20.8125H2.3125C1.03412 20.8125 0 19.7791 0 18.435C0 17.0908 1.03412 16.1875 2.3125 16.1875H29.1086L31.4211 18.5L29.1086 20.8125Z" fill="#3400B0"/>
</g>
<defs>
<clipPath id="clip0_12_381">
<rect width="37" height="37" fill="white"/>
</clipPath>
</defs>
</svg>
