<svg width="51" height="51" viewBox="0 0 51 51" fill="none" xmlns="http://www.w3.org/2000/svg">
<g clip-path="url(#clip0_12_384)">
<path d="M25.5 7.96875C25.5 7.0882 26.2172 6.375 27.0938 6.375H30.2812C31.1578 6.375 31.875 7.0882 31.875 7.96875V11.1562C31.875 12.0328 31.1578 12.75 30.2812 12.75H27.0938C26.2172 12.75 25.5 12.0328 25.5 11.1562V7.96875ZM11.1562 19.125C12.0328 19.125 12.75 19.8422 12.75 20.7188V23.9062C12.75 24.7828 12.0328 25.5 11.1562 25.5H7.96875C7.0882 25.5 6.375 24.7828 6.375 23.9062V20.7188C6.375 19.8422 7.0882 19.125 7.96875 19.125H11.1562ZM27.0938 31.875C26.2172 31.875 25.5 31.1578 25.5 30.2812V27.0938C25.5 26.2172 26.2172 25.5 27.0938 25.5H30.2812C31.1578 25.5 31.875 26.2172 31.875 27.0938V30.2812C31.875 31.1578 31.1578 31.875 30.2812 31.875H27.0938ZM11.1562 28.6875C12.0328 28.6875 12.75 29.4047 12.75 30.2812V33.4688C12.75 34.3453 12.0328 35.0625 11.1562 35.0625H7.96875C7.0882 35.0625 6.375 34.3453 6.375 33.4688V30.2812C6.375 29.4047 7.0882 28.6875 7.96875 28.6875H11.1562ZM38.25 27.0938C38.25 26.2172 38.9672 25.5 39.8438 25.5H43.0312C43.9078 25.5 44.625 26.2172 44.625 27.0938V30.2812C44.625 31.1578 43.9078 31.875 43.0312 31.875H39.8438C38.9672 31.875 38.25 31.1578 38.25 30.2812V27.0938ZM43.0312 6.375C43.9078 6.375 44.625 7.0882 44.625 7.96875V11.1562C44.625 12.0328 43.9078 12.75 43.0312 12.75H39.8438C38.9672 12.75 38.25 12.0328 38.25 11.1562V7.96875C38.25 7.0882 38.9672 6.375 39.8438 6.375H43.0312ZM25.5 17.5312C25.5 16.6547 26.2172 15.9375 27.0938 15.9375H30.2812C31.1578 15.9375 31.875 16.6547 31.875 17.5312V20.7188C31.875 21.5953 31.1578 22.3125 30.2812 22.3125H27.0938C26.2172 22.3125 25.5 21.5953 25.5 20.7188V17.5312ZM39.8438 22.3125C38.9672 22.3125 38.25 21.5953 38.25 20.7188V17.5312C38.25 16.6547 38.9672 15.9375 39.8438 15.9375H43.0312C43.9078 15.9375 44.625 16.6547 44.625 17.5312V20.7188C44.625 21.5953 43.9078 22.3125 43.0312 22.3125H39.8438Z" fill="white"/>
<path opacity="0.4" d="M44.625 0C48.1412 0 51 2.85381 51 6.375V44.625C51 48.1412 48.1412 51 44.625 51H6.375C2.85381 51 0 48.1412 0 44.625V19.125C0 15.6088 2.85381 12.75 6.375 12.75H19.125V6.375C19.125 2.85381 21.9838 0 25.5 0H44.625ZM6.375 33.4688C6.375 34.3453 7.0882 35.0625 7.96875 35.0625H11.1562C12.0328 35.0625 12.75 34.3453 12.75 33.4688V30.2812C12.75 29.4047 12.0328 28.6875 11.1562 28.6875H7.96875C7.0882 28.6875 6.375 29.4047 6.375 30.2812V33.4688ZM30.2812 31.875C31.1578 31.875 31.875 31.1578 31.875 30.2812V27.0938C31.875 26.2172 31.1578 25.5 30.2812 25.5H27.0938C26.2172 25.5 25.5 26.2172 25.5 27.0938V30.2812C25.5 31.1578 26.2172 31.875 27.0938 31.875H30.2812ZM38.25 30.2812C38.25 31.1578 38.9672 31.875 39.8438 31.875H43.0312C43.9078 31.875 44.625 31.1578 44.625 30.2812V27.0938C44.625 26.2172 43.9078 25.5 43.0312 25.5H39.8438C38.9672 25.5 38.25 26.2172 38.25 27.0938V30.2812ZM7.96875 19.125C7.0882 19.125 6.375 19.8422 6.375 20.7188V23.9062C6.375 24.7828 7.0882 25.5 7.96875 25.5H11.1562C12.0328 25.5 12.75 24.7828 12.75 23.9062V20.7188C12.75 19.8422 12.0328 19.125 11.1562 19.125H7.96875ZM25.5 11.1562C25.5 12.0328 26.2172 12.75 27.0938 12.75H30.2812C31.1578 12.75 31.875 12.0328 31.875 11.1562V7.96875C31.875 7.0882 31.1578 6.375 30.2812 6.375H27.0938C26.2172 6.375 25.5 7.0882 25.5 7.96875V11.1562ZM39.8438 6.375C38.9672 6.375 38.25 7.0882 38.25 7.96875V11.1562C38.25 12.0328 38.9672 12.75 39.8438 12.75H43.0312C43.9078 12.75 44.625 12.0328 44.625 11.1562V7.96875C44.625 7.0882 43.9078 6.375 43.0312 6.375H39.8438ZM25.5 20.7188C25.5 21.5953 26.2172 22.3125 27.0938 22.3125H30.2812C31.1578 22.3125 31.875 21.5953 31.875 20.7188V17.5312C31.875 16.6547 31.1578 15.9375 30.2812 15.9375H27.0938C26.2172 15.9375 25.5 16.6547 25.5 17.5312V20.7188ZM43.0312 22.3125C43.9078 22.3125 44.625 21.5953 44.625 20.7188V17.5312C44.625 16.6547 43.9078 15.9375 43.0312 15.9375H39.8438C38.9672 15.9375 38.25 16.6547 38.25 17.5312V20.7188C38.25 21.5953 38.9672 22.3125 39.8438 22.3125H43.0312Z" fill="white"/>
</g>
<defs>
<clipPath id="clip0_12_384">
<rect width="51" height="51" fill="white"/>
</clipPath>
</defs>
</svg>
