<svg width="44" height="44" viewBox="0 0 44 44" fill="none" xmlns="http://www.w3.org/2000/svg">
<path d="M20.075 28.5083L30.4334 18.15L27.8209 15.5375L20.075 23.2833L16.225 19.4333L13.6125 22.0458L20.075 28.5083ZM22 40.3333C17.7528 39.2638 14.2466 36.827 11.4813 33.0229C8.71601 29.2187 7.33337 24.9944 7.33337 20.35V9.16663L22 3.66663L36.6667 9.16663V20.35C36.6667 24.9944 35.2841 29.2187 32.5188 33.0229C29.7535 36.827 26.2473 39.2638 22 40.3333ZM22 36.4833C25.1778 35.475 27.8056 33.4583 29.8834 30.4333C31.9612 27.4083 33 24.0472 33 20.35V11.6875L22 7.56246L11 11.6875V20.35C11 24.0472 12.0389 27.4083 14.1167 30.4333C16.1945 33.4583 18.8223 35.475 22 36.4833Z" fill="#6C2EFF"/>
</svg>
