<?xml version="1.0" standalone="no"?>
<!DOCTYPE svg PUBLIC "-//W3C//DTD SVG 20010904//EN"
 "http://www.w3.org/TR/2001/REC-SVG-20010904/DTD/svg10.dtd">
<svg version="1.0" xmlns="http://www.w3.org/2000/svg"
 width="16.000000pt" height="16.000000pt" viewBox="0 0 16.000000 16.000000"
 preserveAspectRatio="xMidYMid meet">

<g transform="translate(0.000000,16.000000) scale(0.100000,-0.100000)"
fill="#000000" stroke="none">
<path d="M28 142 c-24 -15 -28 -24 -28 -62 0 -41 3 -47 34 -64 37 -19 83 -18
78 2 -1 8 2 11 7 8 24 -15 41 7 41 53 0 41 -3 48 -31 64 -37 21 -65 21 -101
-1z m84 -18 c22 -18 22 -18 8 0 -14 18 -14 19 8 7 12 -6 22 -14 22 -16 0 -2
-21 -11 -47 -20 -34 -11 -38 -14 -16 -10 18 2 40 2 48 -1 19 -8 20 -44 1 -44
-9 0 -13 8 -10 22 l5 23 -11 -23 c-8 -20 -13 -21 -32 -11 -46 23 -49 29 -32
60 8 16 12 29 10 29 -3 0 -13 -14 -21 -30 -16 -30 -35 -33 -35 -5 0 16 46 44
67 41 6 -1 22 -11 35 -22z m-68 -79 c18 -27 10 -32 -19 -12 -10 8 -15 19 -11
25 10 16 11 16 30 -13z m56 -16 c0 -18 -22 -20 -35 -3 -21 28 -18 35 10 22 14
-6 25 -15 25 -19z"/>
</g>
</svg>
