<svg width="44" height="44" viewBox="0 0 44 44" fill="none" xmlns="http://www.w3.org/2000/svg">
<path d="M11.9166 36.6667C9.13609 36.6667 6.7604 35.7042 4.78956 33.7792C2.81873 31.8542 1.83331 29.5014 1.83331 26.7209C1.83331 24.3375 2.55137 22.2139 3.98748 20.35C5.42359 18.4862 7.30276 17.2945 9.62498 16.775C10.3889 13.9639 11.9166 11.6875 14.2083 9.94587C16.5 8.20421 19.0972 7.33337 22 7.33337C25.575 7.33337 28.6076 8.57851 31.0979 11.0688C33.5882 13.5591 34.8333 16.5917 34.8333 20.1667C36.9416 20.4112 38.6909 21.3202 40.0812 22.8938C41.4715 24.4674 42.1666 26.3084 42.1666 28.4167C42.1666 30.7084 41.3646 32.6563 39.7604 34.2605C38.1562 35.8646 36.2083 36.6667 33.9166 36.6667H23.8333C22.825 36.6667 21.9618 36.3077 21.2437 35.5896C20.5257 34.8716 20.1666 34.0084 20.1666 33V23.5584L17.2333 26.4L14.6666 23.8334L22 16.5L29.3333 23.8334L26.7666 26.4L23.8333 23.5584V33H33.9166C35.2 33 36.2847 32.557 37.1708 31.6709C38.0569 30.7848 38.5 29.7 38.5 28.4167C38.5 27.1334 38.0569 26.0487 37.1708 25.1625C36.2847 24.2764 35.2 23.8334 33.9166 23.8334H31.1666V20.1667C31.1666 17.6306 30.2729 15.4688 28.4854 13.6813C26.6979 11.8938 24.5361 11 22 11C19.4639 11 17.3021 11.8938 15.5146 13.6813C13.7271 15.4688 12.8333 17.6306 12.8333 20.1667H11.9166C10.1444 20.1667 8.63192 20.7931 7.37915 22.0459C6.12637 23.2987 5.49998 24.8112 5.49998 26.5834C5.49998 28.3556 6.12637 29.8681 7.37915 31.1209C8.63192 32.3737 10.1444 33 11.9166 33H16.5V36.6667H11.9166Z" fill="#6C2EFF"/>
</svg>
