<svg width="44" height="44" viewBox="0 0 44 44" fill="none" xmlns="http://www.w3.org/2000/svg">
<path d="M20.1666 38.5V34.8333H34.8333V21.8167C34.8333 18.2417 33.5882 15.209 31.0979 12.7188C28.6076 10.2285 25.575 8.98333 22 8.98333C18.425 8.98333 15.3923 10.2285 12.902 12.7188C10.4118 15.209 9.16663 18.2417 9.16663 21.8167V33H7.33329C6.32496 33 5.46176 32.641 4.74371 31.9229C4.02565 31.2049 3.66663 30.3417 3.66663 29.3333V25.6667C3.66663 25.025 3.82704 24.4215 4.14788 23.8563C4.46871 23.291 4.9194 22.8403 5.49996 22.5042L5.63746 20.075C5.8819 17.9972 6.48538 16.0722 7.44788 14.3C8.41038 12.5278 9.61732 10.9847 11.0687 9.67083C12.5201 8.35694 14.1854 7.33333 16.0645 6.6C17.9437 5.86667 19.9222 5.5 22 5.5C24.0777 5.5 26.0486 5.86667 27.9125 6.6C29.7763 7.33333 31.4416 8.34931 32.9083 9.64792C34.375 10.9465 35.5819 12.4819 36.5291 14.2542C37.4763 16.0264 38.0875 17.9514 38.3625 20.0292L38.5 22.4125C39.0805 22.6875 39.5312 23.1 39.852 23.65C40.1729 24.2 40.3333 24.7806 40.3333 25.3917V29.6083C40.3333 30.2194 40.1729 30.8 39.852 31.35C39.5312 31.9 39.0805 32.3125 38.5 32.5875V34.8333C38.5 35.8417 38.1409 36.7049 37.4229 37.4229C36.7048 38.141 35.8416 38.5 34.8333 38.5H20.1666ZM16.5 25.6667C15.9805 25.6667 15.5451 25.491 15.1937 25.1396C14.8423 24.7882 14.6666 24.3528 14.6666 23.8333C14.6666 23.3139 14.8423 22.8785 15.1937 22.5271C15.5451 22.1757 15.9805 22 16.5 22C17.0194 22 17.4548 22.1757 17.8062 22.5271C18.1576 22.8785 18.3333 23.3139 18.3333 23.8333C18.3333 24.3528 18.1576 24.7882 17.8062 25.1396C17.4548 25.491 17.0194 25.6667 16.5 25.6667ZM27.5 25.6667C26.9805 25.6667 26.5451 25.491 26.1937 25.1396C25.8423 24.7882 25.6666 24.3528 25.6666 23.8333C25.6666 23.3139 25.8423 22.8785 26.1937 22.5271C26.5451 22.1757 26.9805 22 27.5 22C28.0194 22 28.4548 22.1757 28.8062 22.5271C29.1576 22.8785 29.3333 23.3139 29.3333 23.8333C29.3333 24.3528 29.1576 24.7882 28.8062 25.1396C28.4548 25.491 28.0194 25.6667 27.5 25.6667ZM11.0458 22.825C10.8319 19.5861 11.8097 16.8056 13.9791 14.4833C16.1486 12.1611 18.8527 11 22.0916 11C24.8111 11 27.202 11.8632 29.2645 13.5896C31.327 15.316 32.5722 17.5236 33 20.2125C30.2194 20.1819 27.6604 19.4333 25.3229 17.9667C22.9854 16.5 21.1902 14.5139 19.9375 12.0083C19.4486 14.4528 18.4173 16.6299 16.8437 18.5396C15.2701 20.4493 13.3375 21.8778 11.0458 22.825Z" fill="#6C2EFF"/>
</svg>
